<?xml version="1.0" encoding="iso-8859-1"?>
<!-- Generator: Adobe Illustrator 21.1.0, SVG Export Plug-In . SVG Version: 6.00 Build 0)  -->
<svg version="1.1" id="Layer_1" xmlns="http://www.w3.org/2000/svg" xmlns:xlink="http://www.w3.org/1999/xlink" x="0px" y="0px"
	 viewBox="0 0 44.112 50.936" style="enable-background:new 0 0 44.112 50.936;" xml:space="preserve">
<g id="logo_x60_45x51">
	<polygon style="fill:#FF7A91;" points="44.112,38.202 22.056,50.936 0,38.202 0,12.734 22.056,0 44.112,12.734 	"/>
	<polyline style="fill:#E15F72;" points="12.523,36.38 25.363,49.012 44.112,38.202 44.112,27.114 31.188,14.19 22.056,14.19 
		22.056,30.132 	"/>
	<g>
		<polygon style="fill:#FFFFFF;" points="31.188,35.099 21.976,39.825 12.523,35.018 21.735,30.212 		"/>
		<polygon style="fill:#F0E7E6;" points="27.263,33.096 21.816,35.9 16.288,33.016 21.735,30.212 		"/>
		<polygon style="fill:#DFD6D6;" points="21.976,39.825 31.188,35.099 31.188,36.46 21.976,41.187 		"/>
		<polygon style="fill:#E6DDDD;" points="21.976,39.825 12.523,35.018 12.523,36.38 21.976,41.187 		"/>
	</g>
	<g>
		<polygon style="fill:#DFD6D6;" points="22.056,32.135 29.586,28.289 29.586,29.411 22.056,33.256 		"/>
		<polygon style="fill:#E6DDDD;" points="22.056,32.135 14.526,28.289 14.526,29.411 22.056,33.256 		"/>
		<polygon style="fill:#FFFFFF;" points="29.586,28.289 22.056,32.135 14.526,28.289 22.056,24.444 		"/>
		<polygon style="fill:#F0E7E6;" points="27.583,27.248 22.056,30.132 16.528,27.248 22.056,24.444 		"/>
	</g>
	<g>
		<polygon style="fill:#DFD6D6;" points="22.056,26.126 31.188,21.4 31.188,22.842 22.056,27.488 		"/>
		<polygon style="fill:#E6DDDD;" points="22.056,26.126 12.924,21.4 12.924,22.842 22.056,27.488 		"/>
		<polygon style="fill:#FFFFFF;" points="31.188,21.4 22.056,26.126 12.924,21.4 22.056,16.754 		"/>
		<polygon style="fill:#F0E7E6;" points="28.785,20.199 22.056,23.643 15.327,20.199 22.056,16.754 		"/>
	</g>
	<g>
		<polygon style="fill:#FFFFFF;" points="31.188,14.19 21.976,18.917 12.763,14.19 21.976,9.464 		"/>
		<polygon style="fill:#DFD6D6;" points="21.976,18.917 31.188,14.19 31.188,15.632 21.976,20.359 		"/>
		<polygon style="fill:#E6DDDD;" points="21.976,18.917 12.763,14.19 12.763,15.632 21.976,20.359 		"/>
	</g>
	<path style="fill:none;stroke:#EDE3E3;stroke-width:1.0658;stroke-miterlimit:10;stroke-dasharray:9.4284,2.6938;" d="
		M31.188,20.199"/>
</g>
</svg>
